<?xml version="1.0" encoding="UTF-8"?>
<!DOCTYPE svg PUBLIC "-//W3C//DTD SVG 1.1//EN" "http://www.w3.org/Graphics/SVG/1.1/DTD/svg11.dtd">
<svg xmlns="http://www.w3.org/2000/svg" version="1.1" width="450px" height="450px" style="shape-rendering:geometricPrecision; text-rendering:geometricPrecision; image-rendering:optimizeQuality; fill-rule:evenodd; clip-rule:evenodd" xmlns:xlink="http://www.w3.org/1999/xlink">
<g><path style="opacity:0.96" fill="#fe8000" d="M 231.5,134.5 C 243.167,134.5 254.833,134.5 266.5,134.5C 266.5,145.167 266.5,155.833 266.5,166.5C 259.159,166.334 251.826,166.5 244.5,167C 242.508,167.574 241.008,168.741 240,170.5C 239.5,177.826 239.334,185.159 239.5,192.5C 248.5,192.5 257.5,192.5 266.5,192.5C 266.012,203.555 265.012,214.555 263.5,225.5C 255.5,225.5 247.5,225.5 239.5,225.5C 239.5,255.167 239.5,284.833 239.5,314.5C 227.833,314.5 216.167,314.5 204.5,314.5C 204.5,284.833 204.5,255.167 204.5,225.5C 197.167,225.5 189.833,225.5 182.5,225.5C 182.5,214.5 182.5,203.5 182.5,192.5C 189.833,192.5 197.167,192.5 204.5,192.5C 204.334,183.161 204.5,173.827 205,164.5C 206.005,147.34 214.839,137.34 231.5,134.5 Z"/></g>
</svg>
