<?xml version="1.0" encoding="UTF-8"?>
<!DOCTYPE svg PUBLIC "-//W3C//DTD SVG 1.1//EN" "http://www.w3.org/Graphics/SVG/1.1/DTD/svg11.dtd">
<svg xmlns="http://www.w3.org/2000/svg" version="1.1" width="225px" height="225px" style="shape-rendering:geometricPrecision; text-rendering:geometricPrecision; image-rendering:optimizeQuality; fill-rule:evenodd; clip-rule:evenodd" xmlns:xlink="http://www.w3.org/1999/xlink">
<g><path style="opacity:0.922" fill="#fe7900" d="M 85.5,68.5 C 103.503,68.3334 121.503,68.5001 139.5,69C 147.667,71.8333 153.167,77.3333 156,85.5C 156.667,103.5 156.667,121.5 156,139.5C 153.167,147.667 147.667,153.167 139.5,156C 121.5,156.667 103.5,156.667 85.5,156C 77.3333,153.167 71.8333,147.667 69,139.5C 68.3333,121.5 68.3333,103.5 69,85.5C 72.0191,77.3156 77.5191,71.649 85.5,68.5 Z M 91.5,76.5 C 105.504,76.3334 119.504,76.5001 133.5,77C 141.216,78.3818 146.049,82.8818 148,90.5C 148.667,105.167 148.667,119.833 148,134.5C 146.049,142.118 141.216,146.618 133.5,148C 119.5,148.667 105.5,148.667 91.5,148C 83.7842,146.618 78.9509,142.118 77,134.5C 76.3333,119.833 76.3333,105.167 77,90.5C 79.1274,82.87 83.9607,78.2033 91.5,76.5 Z M 107.5,98.5 C 124.286,98.0726 129.786,105.739 124,121.5C 117.803,127.104 110.969,127.937 103.5,124C 97.8959,117.803 97.0626,110.969 101,103.5C 102.965,101.45 105.132,99.783 107.5,98.5 Z"/></g>
<g><path style="opacity:0.829" fill="#fe7900" d="M 134.5,82.5 C 140.133,82.9613 142.633,85.9613 142,91.5C 136.613,97.1534 132.447,96.3201 129.5,89C 130.283,86.0622 131.95,83.8955 134.5,82.5 Z"/></g>
<g><path style="opacity:0.878" fill="#fe7900" d="M 106.5,89.5 C 120.594,87.6249 130.094,93.2916 135,106.5C 137.366,120.606 131.866,130.106 118.5,135C 104.394,137.366 94.8943,131.866 90,118.5C 87.7592,104.305 93.2592,94.6382 106.5,89.5 Z M 107.5,98.5 C 105.132,99.783 102.965,101.45 101,103.5C 97.0626,110.969 97.8959,117.803 103.5,124C 110.969,127.937 117.803,127.104 124,121.5C 129.786,105.739 124.286,98.0726 107.5,98.5 Z"/></g>
</svg>
