<?xml version="1.0" encoding="UTF-8"?>
<!DOCTYPE svg PUBLIC "-//W3C//DTD SVG 1.1//EN" "http://www.w3.org/Graphics/SVG/1.1/DTD/svg11.dtd">
<svg xmlns="http://www.w3.org/2000/svg" version="1.1" width="450px" height="450px" style="shape-rendering:geometricPrecision; text-rendering:geometricPrecision; image-rendering:optimizeQuality; fill-rule:evenodd; clip-rule:evenodd" xmlns:xlink="http://www.w3.org/1999/xlink">
<g><path style="opacity:0.96" fill="#fe8000" d="M 228.5,143.5 C 238.167,143.5 247.833,143.5 257.5,143.5C 259.342,166.343 271.676,179.01 294.5,181.5C 294.5,190.5 294.5,199.5 294.5,208.5C 288.088,208.32 281.754,207.487 275.5,206C 268.958,203.881 262.625,201.547 256.5,199C 257.658,215.426 257.824,231.926 257,248.5C 255.931,276.835 242.098,295.668 215.5,305C 182.925,309.137 162.758,295.303 155,263.5C 152.028,234.263 164.194,214.43 191.5,204C 198.069,202.371 204.735,201.538 211.5,201.5C 211.832,210.857 211.498,220.19 210.5,229.5C 201.622,231.179 193.455,234.513 186,239.5C 178.272,251.546 179.439,262.712 189.5,273C 199.833,280.333 210.167,280.333 220.5,273C 223.567,269.703 225.733,265.869 227,261.5C 228.458,222.197 228.958,182.864 228.5,143.5 Z"/></g>
</svg>
