<?xml version="1.0" encoding="UTF-8"?>
<!DOCTYPE svg PUBLIC "-//W3C//DTD SVG 1.1//EN" "http://www.w3.org/Graphics/SVG/1.1/DTD/svg11.dtd">
<svg xmlns="http://www.w3.org/2000/svg" version="1.1" width="450px" height="450px" style="shape-rendering:geometricPrecision; text-rendering:geometricPrecision; image-rendering:optimizeQuality; fill-rule:evenodd; clip-rule:evenodd" xmlns:xlink="http://www.w3.org/1999/xlink">
<g><path style="opacity:0.965" fill="#fe8000" d="M 158.5,144.5 C 206.167,144.5 253.833,144.5 301.5,144.5C 301.667,177.502 301.5,210.502 301,243.5C 287.167,257.333 273.333,271.167 259.5,285C 249.167,285.333 238.833,285.667 228.5,286C 222.5,292 216.5,298 210.5,304C 201.814,304.832 193.147,304.665 184.5,303.5C 183.879,297.569 183.879,291.569 184.5,285.5C 172.167,285.5 159.833,285.5 147.5,285.5C 147.333,247.832 147.5,210.165 148,172.5C 151.708,162.831 155.208,153.497 158.5,144.5 Z M 205.5,272.5 C 205.81,266.242 205.476,260.076 204.5,254C 195.84,253.5 187.173,253.334 178.5,253.5C 178.5,222.833 178.5,192.167 178.5,161.5C 213.833,161.5 249.167,161.5 284.5,161.5C 284.667,185.836 284.5,210.169 284,234.5C 277.833,240.667 271.667,246.833 265.5,253C 251.833,253.333 238.167,253.667 224.5,254C 218.298,260.369 211.965,266.536 205.5,272.5 Z"/></g>
<g><path style="opacity:0.946" fill="#fe8000" d="M 207.5,184.5 C 214.5,184.5 221.5,184.5 228.5,184.5C 228.5,200.167 228.5,215.833 228.5,231.5C 221.5,231.5 214.5,231.5 207.5,231.5C 207.5,215.833 207.5,200.167 207.5,184.5 Z"/></g>
<g><path style="opacity:0.95" fill="#fe8000" d="M 240.5,184.5 C 247.5,184.5 254.5,184.5 261.5,184.5C 261.5,200.167 261.5,215.833 261.5,231.5C 254.5,231.5 247.5,231.5 240.5,231.5C 240.5,215.833 240.5,200.167 240.5,184.5 Z"/></g>
</svg>
