<?xml version="1.0" encoding="UTF-8"?>
<!DOCTYPE svg PUBLIC "-//W3C//DTD SVG 1.1//EN" "http://www.w3.org/Graphics/SVG/1.1/DTD/svg11.dtd">
<svg xmlns="http://www.w3.org/2000/svg" version="1.1" width="450px" height="450px" style="shape-rendering:geometricPrecision; text-rendering:geometricPrecision; image-rendering:optimizeQuality; fill-rule:evenodd; clip-rule:evenodd" xmlns:xlink="http://www.w3.org/1999/xlink">
<g><path style="opacity:0.975" fill="#fe8000" d="M 253.5,144.5 C 269.138,142.07 282.472,146.403 293.5,157.5C 302.98,155.287 311.814,151.621 320,146.5C 317.671,155.85 312.504,163.35 304.5,169C 311.422,168.81 317.922,166.977 324,163.5C 324.167,164 324.333,164.5 324.5,165C 319.749,173.253 313.416,180.086 305.5,185.5C 304.877,231.925 285.544,268.091 247.5,294C 219.189,309.616 189.189,313.949 157.5,307C 144.657,303.744 132.657,298.577 121.5,291.5C 143.437,292.751 163.437,287.251 181.5,275C 169.766,273.384 159.933,268.217 152,259.5C 148.221,254.609 145.554,249.276 144,243.5C 149.75,244.641 155.584,244.807 161.5,244C 142.647,238.327 131.98,225.661 129.5,206C 129.833,204.833 130.167,203.667 130.5,202.5C 135.183,205.232 140.183,206.399 145.5,206C 128.762,190.163 125.596,171.997 136,151.5C 158.295,178.065 186.795,192.565 221.5,195C 218.51,169.494 229.177,152.66 253.5,144.5 Z"/></g>
</svg>
