<?xml version="1.0" encoding="UTF-8"?>
<!DOCTYPE svg PUBLIC "-//W3C//DTD SVG 1.1//EN" "http://www.w3.org/Graphics/SVG/1.1/DTD/svg11.dtd">
<svg xmlns="http://www.w3.org/2000/svg" version="1.1" width="450px" height="450px" style="shape-rendering:geometricPrecision; text-rendering:geometricPrecision; image-rendering:optimizeQuality; fill-rule:evenodd; clip-rule:evenodd" xmlns:xlink="http://www.w3.org/1999/xlink">
<g><path style="opacity:0.926" fill="#fe8000" d="M 165.5,145.5 C 211.18,145.114 256.847,145.614 302.5,147C 322.151,153.696 330.985,167.529 329,188.5C 329.87,217.185 329.537,245.852 328,274.5C 325.519,287.644 318.019,296.477 305.5,301C 295.893,302.225 286.226,302.892 276.5,303C 233.489,303.84 190.489,303.506 147.5,302C 132.923,298.422 124.09,289.256 121,274.5C 119,241.167 119,207.833 121,174.5C 123.99,160.178 132.49,151.012 146.5,147C 153.013,146.828 159.347,146.328 165.5,145.5 Z M 181.5,159.5 C 220.511,159.22 259.511,159.72 298.5,161C 305.358,162.183 310.192,166.016 313,172.5C 315.942,205.454 316.275,238.454 314,271.5C 312.958,278.755 309.125,283.921 302.5,287C 250.498,290.333 198.498,290.333 146.5,287C 141.243,284.744 137.743,280.91 136,275.5C 134.827,268.563 134.16,261.563 134,254.5C 133.333,234.5 133.333,214.5 134,194.5C 134.199,187.115 134.865,179.782 136,172.5C 138.114,168.052 141.281,164.552 145.5,162C 157.634,160.968 169.634,160.134 181.5,159.5 Z"/></g>
<g><path style="opacity:0.941" fill="#fe8000" d="M 203.5,183.5 C 224.07,196.723 244.404,210.39 264.5,224.5C 244.42,238.29 224.253,251.957 204,265.5C 203.5,238.169 203.333,210.835 203.5,183.5 Z"/></g>
</svg>
